<svg xmlns="http://www.w3.org/2000/svg" viewBox="0 0 512 512" role="img" aria-label="Volunteer Gang">
  <rect width="512" height="512" rx="116.4" fill="#0D0C0C"/>
  <g transform="rotate(-5 256.0 256.0)" stroke-linejoin="round" stroke-linecap="round">
    <path d="M350.20799999999997 358.41551515151514Q352.34909090909093 370.5483636363636 352.34909090909093 376.25793939393935Q352.34909090909093 387.3202424242424 347.3532121212121 395.52775757575756Q343.0710303030303 403.0215757575757 335.57721212121214 409.98012121212116Q328.08339393939394 416.9386666666666 320.9464242424242 416.9386666666666Q304.88824242424243 416.9386666666666 304.88824242424243 379.46957575757574L305.2450909090909 363.0545454545454Q306.3156363636364 331.2950303030303 312.3820606060606 298.1081212121212Q304.5313939393939 298.46496969696966 302.7471515151515 300.24921212121205Q300.9629090909091 302.0334545454545 299.8923636363636 307.74303030303025Q299.8923636363636 311.6683636363636 298.46496969696966 316.30739393939393Q294.8964848484849 330.5813333333333 285.6184242424242 343.78472727272725Q277.41090909090906 355.56072727272726 265.6349090909091 363.58981818181815Q253.8589090909091 371.6189090909091 239.94181818181818 374.47369696969696Q230.30690909090907 376.25793939393935 223.1699393939394 376.25793939393935Q197.12 376.25793939393935 178.5638787878788 360.3781818181818Q160.00775757575758 344.4984242424242 157.86666666666665 317.73478787878787Q157.50981818181816 314.88 157.50981818181816 308.81357575757573Q157.50981818181816 285.2615757575757 165.36048484848482 259.39006060606056Q173.2111515151515 233.51854545454543 186.41454545454545 204.97066666666663Q213.53503030303028 146.09066666666664 249.93357575757574 115.75854545454541Q260.9958787878788 106.48048484848482 274.1992727272727 100.77090909090904Q287.4026666666666 95.06133333333327 299.53551515151514 95.06133333333327Q310.2409696969697 95.06133333333327 318.9837575757576 100.05721212121207Q327.72654545454543 105.05309090909088 333.0792727272727 115.75854545454541Q340.2162424242424 129.67563636363633 340.2162424242424 146.8043636363636Q340.2162424242424 163.5762424242424 333.7929696969697 181.2402424242424Q327.369696969697 198.9042424242424 316.6642424242424 214.60557575757574Q311.66836363636367 222.0993939393939 302.92557575757576 230.4853333333333Q294.18278787878785 238.8712727272727 287.04581818181816 238.8712727272727Q282.76363636363635 238.8712727272727 280.26569696969693 235.30278787878785Q277.76775757575757 232.44799999999995 277.76775757575757 228.16581818181814Q277.76775757575757 219.60145454545452 289.5437575757576 205.32751515151512L294.53963636363636 198.19054545454543Q299.1786666666667 190.33987878787875 299.1786666666667 181.06181818181815Q299.1786666666667 168.2152727272727 291.14957575757575 158.22351515151513Q283.1204848484848 148.23175757575754 271.7013333333333 148.23175757575754Q263.49381818181814 148.23175757575754 255.28630303030303 154.29818181818177Q237.0870303030303 167.50157575757572 224.59733333333332 195.87103030303027Q212.10763636363635 224.2404848484848 206.75490909090908 252.43151515151513Q204.97066666666666 262.0664242424242 204.97066666666666 268.84654545454543Q204.97066666666666 291.68484848484843 218.1740606060606 305.4235151515151Q231.37745454545455 319.1621818181818 256.35684848484846 318.4484848484848Q253.8589090909091 310.5978181818182 251.3609696969697 307.7430303030303Q248.8630303030303 304.8882424242424 242.43975757575757 303.81769696969695Q240.29866666666666 303.46084848484844 235.8380606060606 304.53139393939387Q231.37745454545455 305.60193939393935 229.23636363636365 305.60193939393935Q217.46036363636364 304.5313939393939 217.46036363636364 295.25333333333333Q217.46036363636364 291.68484848484843 219.24460606060603 285.6184242424242Q223.1699393939394 273.4855757575757 230.8421818181818 267.2407272727272Q238.51442424242424 260.9958787878787 247.6140606060606 258.8547878787878Q256.71369696969697 256.7136969696969 270.98763636363634 255.286303030303L281.69309090909087 253.85890909090907Q284.1910303030303 253.50206060606058 293.8259393939394 251.36096969696968Q295.9670303030303 251.00412121212116 307.92145454545454 248.50618181818177Q319.8758787878788 246.00824242424238 330.22448484848485 246.00824242424238Q350.921696969697 246.00824242424238 353.77648484848487 259.21163636363633Q354.4901818181818 263.49381818181814 354.4901818181818 265.2780606060606Q354.4901818181818 272.4150303030303 351.9922424242424 282.40678787878784Q350.5648484848485 291.328 350.20799999999997 294.18278787878785Q348.0669090909091 311.6683636363636 348.0669090909091 329.86763636363634Q348.0669090909091 339.1456969696969 348.4237575757576 343.42787878787874Q348.78060606060603 348.4237575757575 350.20799999999997 358.41551515151514Z" fill="#C9E400" stroke="#C9E400" stroke-width="50.4" paint-order="stroke"/>
    <g transform="translate(19.4 23.3)">
      <path d="M350.20799999999997 358.41551515151514Q352.34909090909093 370.5483636363636 352.34909090909093 376.25793939393935Q352.34909090909093 387.3202424242424 347.3532121212121 395.52775757575756Q343.0710303030303 403.0215757575757 335.57721212121214 409.98012121212116Q328.08339393939394 416.9386666666666 320.9464242424242 416.9386666666666Q304.88824242424243 416.9386666666666 304.88824242424243 379.46957575757574L305.2450909090909 363.0545454545454Q306.3156363636364 331.2950303030303 312.3820606060606 298.1081212121212Q304.5313939393939 298.46496969696966 302.7471515151515 300.24921212121205Q300.9629090909091 302.0334545454545 299.8923636363636 307.74303030303025Q299.8923636363636 311.6683636363636 298.46496969696966 316.30739393939393Q294.8964848484849 330.5813333333333 285.6184242424242 343.78472727272725Q277.41090909090906 355.56072727272726 265.6349090909091 363.58981818181815Q253.8589090909091 371.6189090909091 239.94181818181818 374.47369696969696Q230.30690909090907 376.25793939393935 223.1699393939394 376.25793939393935Q197.12 376.25793939393935 178.5638787878788 360.3781818181818Q160.00775757575758 344.4984242424242 157.86666666666665 317.73478787878787Q157.50981818181816 314.88 157.50981818181816 308.81357575757573Q157.50981818181816 285.2615757575757 165.36048484848482 259.39006060606056Q173.2111515151515 233.51854545454543 186.41454545454545 204.97066666666663Q213.53503030303028 146.09066666666664 249.93357575757574 115.75854545454541Q260.9958787878788 106.48048484848482 274.1992727272727 100.77090909090904Q287.4026666666666 95.06133333333327 299.53551515151514 95.06133333333327Q310.2409696969697 95.06133333333327 318.9837575757576 100.05721212121207Q327.72654545454543 105.05309090909088 333.0792727272727 115.75854545454541Q340.2162424242424 129.67563636363633 340.2162424242424 146.8043636363636Q340.2162424242424 163.5762424242424 333.7929696969697 181.2402424242424Q327.369696969697 198.9042424242424 316.6642424242424 214.60557575757574Q311.66836363636367 222.0993939393939 302.92557575757576 230.4853333333333Q294.18278787878785 238.8712727272727 287.04581818181816 238.8712727272727Q282.76363636363635 238.8712727272727 280.26569696969693 235.30278787878785Q277.76775757575757 232.44799999999995 277.76775757575757 228.16581818181814Q277.76775757575757 219.60145454545452 289.5437575757576 205.32751515151512L294.53963636363636 198.19054545454543Q299.1786666666667 190.33987878787875 299.1786666666667 181.06181818181815Q299.1786666666667 168.2152727272727 291.14957575757575 158.22351515151513Q283.1204848484848 148.23175757575754 271.7013333333333 148.23175757575754Q263.49381818181814 148.23175757575754 255.28630303030303 154.29818181818177Q237.0870303030303 167.50157575757572 224.59733333333332 195.87103030303027Q212.10763636363635 224.2404848484848 206.75490909090908 252.43151515151513Q204.97066666666666 262.0664242424242 204.97066666666666 268.84654545454543Q204.97066666666666 291.68484848484843 218.1740606060606 305.4235151515151Q231.37745454545455 319.1621818181818 256.35684848484846 318.4484848484848Q253.8589090909091 310.5978181818182 251.3609696969697 307.7430303030303Q248.8630303030303 304.8882424242424 242.43975757575757 303.81769696969695Q240.29866666666666 303.46084848484844 235.8380606060606 304.53139393939387Q231.37745454545455 305.60193939393935 229.23636363636365 305.60193939393935Q217.46036363636364 304.5313939393939 217.46036363636364 295.25333333333333Q217.46036363636364 291.68484848484843 219.24460606060603 285.6184242424242Q223.1699393939394 273.4855757575757 230.8421818181818 267.2407272727272Q238.51442424242424 260.9958787878787 247.6140606060606 258.8547878787878Q256.71369696969697 256.7136969696969 270.98763636363634 255.286303030303L281.69309090909087 253.85890909090907Q284.1910303030303 253.50206060606058 293.8259393939394 251.36096969696968Q295.9670303030303 251.00412121212116 307.92145454545454 248.50618181818177Q319.8758787878788 246.00824242424238 330.22448484848485 246.00824242424238Q350.921696969697 246.00824242424238 353.77648484848487 259.21163636363633Q354.4901818181818 263.49381818181814 354.4901818181818 265.2780606060606Q354.4901818181818 272.4150303030303 351.9922424242424 282.40678787878784Q350.5648484848485 291.328 350.20799999999997 294.18278787878785Q348.0669090909091 311.6683636363636 348.0669090909091 329.86763636363634Q348.0669090909091 339.1456969696969 348.4237575757576 343.42787878787874Q348.78060606060603 348.4237575757575 350.20799999999997 358.41551515151514Z" fill="#C9E400" stroke="#C9E400" stroke-width="50.4" paint-order="stroke"/>
      <path d="M350.20799999999997 358.41551515151514Q352.34909090909093 370.5483636363636 352.34909090909093 376.25793939393935Q352.34909090909093 387.3202424242424 347.3532121212121 395.52775757575756Q343.0710303030303 403.0215757575757 335.57721212121214 409.98012121212116Q328.08339393939394 416.9386666666666 320.9464242424242 416.9386666666666Q304.88824242424243 416.9386666666666 304.88824242424243 379.46957575757574L305.2450909090909 363.0545454545454Q306.3156363636364 331.2950303030303 312.3820606060606 298.1081212121212Q304.5313939393939 298.46496969696966 302.7471515151515 300.24921212121205Q300.9629090909091 302.0334545454545 299.8923636363636 307.74303030303025Q299.8923636363636 311.6683636363636 298.46496969696966 316.30739393939393Q294.8964848484849 330.5813333333333 285.6184242424242 343.78472727272725Q277.41090909090906 355.56072727272726 265.6349090909091 363.58981818181815Q253.8589090909091 371.6189090909091 239.94181818181818 374.47369696969696Q230.30690909090907 376.25793939393935 223.1699393939394 376.25793939393935Q197.12 376.25793939393935 178.5638787878788 360.3781818181818Q160.00775757575758 344.4984242424242 157.86666666666665 317.73478787878787Q157.50981818181816 314.88 157.50981818181816 308.81357575757573Q157.50981818181816 285.2615757575757 165.36048484848482 259.39006060606056Q173.2111515151515 233.51854545454543 186.41454545454545 204.97066666666663Q213.53503030303028 146.09066666666664 249.93357575757574 115.75854545454541Q260.9958787878788 106.48048484848482 274.1992727272727 100.77090909090904Q287.4026666666666 95.06133333333327 299.53551515151514 95.06133333333327Q310.2409696969697 95.06133333333327 318.9837575757576 100.05721212121207Q327.72654545454543 105.05309090909088 333.0792727272727 115.75854545454541Q340.2162424242424 129.67563636363633 340.2162424242424 146.8043636363636Q340.2162424242424 163.5762424242424 333.7929696969697 181.2402424242424Q327.369696969697 198.9042424242424 316.6642424242424 214.60557575757574Q311.66836363636367 222.0993939393939 302.92557575757576 230.4853333333333Q294.18278787878785 238.8712727272727 287.04581818181816 238.8712727272727Q282.76363636363635 238.8712727272727 280.26569696969693 235.30278787878785Q277.76775757575757 232.44799999999995 277.76775757575757 228.16581818181814Q277.76775757575757 219.60145454545452 289.5437575757576 205.32751515151512L294.53963636363636 198.19054545454543Q299.1786666666667 190.33987878787875 299.1786666666667 181.06181818181815Q299.1786666666667 168.2152727272727 291.14957575757575 158.22351515151513Q283.1204848484848 148.23175757575754 271.7013333333333 148.23175757575754Q263.49381818181814 148.23175757575754 255.28630303030303 154.29818181818177Q237.0870303030303 167.50157575757572 224.59733333333332 195.87103030303027Q212.10763636363635 224.2404848484848 206.75490909090908 252.43151515151513Q204.97066666666666 262.0664242424242 204.97066666666666 268.84654545454543Q204.97066666666666 291.68484848484843 218.1740606060606 305.4235151515151Q231.37745454545455 319.1621818181818 256.35684848484846 318.4484848484848Q253.8589090909091 310.5978181818182 251.3609696969697 307.7430303030303Q248.8630303030303 304.8882424242424 242.43975757575757 303.81769696969695Q240.29866666666666 303.46084848484844 235.8380606060606 304.53139393939387Q231.37745454545455 305.60193939393935 229.23636363636365 305.60193939393935Q217.46036363636364 304.5313939393939 217.46036363636364 295.25333333333333Q217.46036363636364 291.68484848484843 219.24460606060603 285.6184242424242Q223.1699393939394 273.4855757575757 230.8421818181818 267.2407272727272Q238.51442424242424 260.9958787878787 247.6140606060606 258.8547878787878Q256.71369696969697 256.7136969696969 270.98763636363634 255.286303030303L281.69309090909087 253.85890909090907Q284.1910303030303 253.50206060606058 293.8259393939394 251.36096969696968Q295.9670303030303 251.00412121212116 307.92145454545454 248.50618181818177Q319.8758787878788 246.00824242424238 330.22448484848485 246.00824242424238Q350.921696969697 246.00824242424238 353.77648484848487 259.21163636363633Q354.4901818181818 263.49381818181814 354.4901818181818 265.2780606060606Q354.4901818181818 272.4150303030303 351.9922424242424 282.40678787878784Q350.5648484848485 291.328 350.20799999999997 294.18278787878785Q348.0669090909091 311.6683636363636 348.0669090909091 329.86763636363634Q348.0669090909091 339.1456969696969 348.4237575757576 343.42787878787874Q348.78060606060603 348.4237575757575 350.20799999999997 358.41551515151514Z" fill="#0D0C0C" stroke="#0D0C0C" stroke-width="27.2" paint-order="stroke"/>
    </g>
    <path d="M350.20799999999997 358.41551515151514Q352.34909090909093 370.5483636363636 352.34909090909093 376.25793939393935Q352.34909090909093 387.3202424242424 347.3532121212121 395.52775757575756Q343.0710303030303 403.0215757575757 335.57721212121214 409.98012121212116Q328.08339393939394 416.9386666666666 320.9464242424242 416.9386666666666Q304.88824242424243 416.9386666666666 304.88824242424243 379.46957575757574L305.2450909090909 363.0545454545454Q306.3156363636364 331.2950303030303 312.3820606060606 298.1081212121212Q304.5313939393939 298.46496969696966 302.7471515151515 300.24921212121205Q300.9629090909091 302.0334545454545 299.8923636363636 307.74303030303025Q299.8923636363636 311.6683636363636 298.46496969696966 316.30739393939393Q294.8964848484849 330.5813333333333 285.6184242424242 343.78472727272725Q277.41090909090906 355.56072727272726 265.6349090909091 363.58981818181815Q253.8589090909091 371.6189090909091 239.94181818181818 374.47369696969696Q230.30690909090907 376.25793939393935 223.1699393939394 376.25793939393935Q197.12 376.25793939393935 178.5638787878788 360.3781818181818Q160.00775757575758 344.4984242424242 157.86666666666665 317.73478787878787Q157.50981818181816 314.88 157.50981818181816 308.81357575757573Q157.50981818181816 285.2615757575757 165.36048484848482 259.39006060606056Q173.2111515151515 233.51854545454543 186.41454545454545 204.97066666666663Q213.53503030303028 146.09066666666664 249.93357575757574 115.75854545454541Q260.9958787878788 106.48048484848482 274.1992727272727 100.77090909090904Q287.4026666666666 95.06133333333327 299.53551515151514 95.06133333333327Q310.2409696969697 95.06133333333327 318.9837575757576 100.05721212121207Q327.72654545454543 105.05309090909088 333.0792727272727 115.75854545454541Q340.2162424242424 129.67563636363633 340.2162424242424 146.8043636363636Q340.2162424242424 163.5762424242424 333.7929696969697 181.2402424242424Q327.369696969697 198.9042424242424 316.6642424242424 214.60557575757574Q311.66836363636367 222.0993939393939 302.92557575757576 230.4853333333333Q294.18278787878785 238.8712727272727 287.04581818181816 238.8712727272727Q282.76363636363635 238.8712727272727 280.26569696969693 235.30278787878785Q277.76775757575757 232.44799999999995 277.76775757575757 228.16581818181814Q277.76775757575757 219.60145454545452 289.5437575757576 205.32751515151512L294.53963636363636 198.19054545454543Q299.1786666666667 190.33987878787875 299.1786666666667 181.06181818181815Q299.1786666666667 168.2152727272727 291.14957575757575 158.22351515151513Q283.1204848484848 148.23175757575754 271.7013333333333 148.23175757575754Q263.49381818181814 148.23175757575754 255.28630303030303 154.29818181818177Q237.0870303030303 167.50157575757572 224.59733333333332 195.87103030303027Q212.10763636363635 224.2404848484848 206.75490909090908 252.43151515151513Q204.97066666666666 262.0664242424242 204.97066666666666 268.84654545454543Q204.97066666666666 291.68484848484843 218.1740606060606 305.4235151515151Q231.37745454545455 319.1621818181818 256.35684848484846 318.4484848484848Q253.8589090909091 310.5978181818182 251.3609696969697 307.7430303030303Q248.8630303030303 304.8882424242424 242.43975757575757 303.81769696969695Q240.29866666666666 303.46084848484844 235.8380606060606 304.53139393939387Q231.37745454545455 305.60193939393935 229.23636363636365 305.60193939393935Q217.46036363636364 304.5313939393939 217.46036363636364 295.25333333333333Q217.46036363636364 291.68484848484843 219.24460606060603 285.6184242424242Q223.1699393939394 273.4855757575757 230.8421818181818 267.2407272727272Q238.51442424242424 260.9958787878787 247.6140606060606 258.8547878787878Q256.71369696969697 256.7136969696969 270.98763636363634 255.286303030303L281.69309090909087 253.85890909090907Q284.1910303030303 253.50206060606058 293.8259393939394 251.36096969696968Q295.9670303030303 251.00412121212116 307.92145454545454 248.50618181818177Q319.8758787878788 246.00824242424238 330.22448484848485 246.00824242424238Q350.921696969697 246.00824242424238 353.77648484848487 259.21163636363633Q354.4901818181818 263.49381818181814 354.4901818181818 265.2780606060606Q354.4901818181818 272.4150303030303 351.9922424242424 282.40678787878784Q350.5648484848485 291.328 350.20799999999997 294.18278787878785Q348.0669090909091 311.6683636363636 348.0669090909091 329.86763636363634Q348.0669090909091 339.1456969696969 348.4237575757576 343.42787878787874Q348.78060606060603 348.4237575757575 350.20799999999997 358.41551515151514Z" fill="#F4A6E3" stroke="#0D0C0C" stroke-width="15.5" paint-order="stroke"/>
  </g>
</svg>
